<?xml version="1.0" standalone="no"?>
<!DOCTYPE svg PUBLIC "-//W3C//DTD SVG 20010904//EN"
 "http://www.w3.org/TR/2001/REC-SVG-20010904/DTD/svg10.dtd">
<svg version="1.0" xmlns="http://www.w3.org/2000/svg"
 width="512.000000pt" height="512.000000pt" viewBox="0 0 512.000000 512.000000"
 preserveAspectRatio="xMidYMid meet">
<metadata>
Created by potrace 1.11, written by Peter Selinger 2001-2013
</metadata>
<g transform="translate(0.000000,512.000000) scale(0.100000,-0.100000)"
fill="#000000" stroke="none">
<path d="M1333 4129 c-153 -22 -302 -96 -408 -203 -79 -80 -123 -156 -155
-266 -19 -64 -23 -109 -27 -302 l-6 -228 -168 0 -169 0 0 -180 0 -180 170 0
170 0 0 -820 0 -820 230 0 230 0 0 820 0 820 230 0 230 0 0 180 0 180 -231 0
-231 0 4 203 c5 231 17 280 85 351 56 58 112 79 218 84 76 4 101 0 163 -20
l72 -24 0 187 0 187 -32 11 c-88 29 -253 37 -375 20z"/>
<path d="M2490 3165 c-162 -31 -324 -144 -420 -293 -25 -39 -48 -71 -52 -71
-5 -1 -8 73 -8 164 l0 165 -85 0 -85 0 0 -1000 0 -1000 84 0 85 0 3 653 4 652
26 97 c90 332 334 520 620 479 207 -29 337 -152 400 -378 22 -76 22 -93 26
-790 l3 -713 89 0 89 0 3 668 c4 751 0 710 83 877 76 155 198 267 342 316 121
42 297 28 414 -32 53 -27 124 -101 153 -162 74 -151 85 -297 86 -1094 l0 -573
85 0 85 0 0 673 c0 712 -4 789 -47 937 -64 223 -205 367 -409 416 -109 27
-290 25 -384 -4 -190 -59 -344 -192 -440 -381 l-22 -44 -27 69 c-69 176 -200
302 -371 355 -85 26 -233 33 -330 14z"/>
</g>
</svg>
